<svg xmlns="http://www.w3.org/2000/svg" xml:space="preserve" id="Layer_1" x="0" y="0" version="1.1" viewBox="0 0 230.7 48.8"><style>.st0{fill:#0a73b7}.st1{fill:#fff}.st2{fill:#f37721}</style><path d="M1 29.7c1.9-1.5 1.8-2.1 7-2.3s14.9 3.3 16 3.8c.5-.9 11.6-7 14-8.4s6.6-5.3 7.2-8.6l.1-.1c-5.6-12-19.9-17-31.8-11.3C3.3 7.7-2.1 19.2.8 30.3l.2-.6z" class="st0"/><path d="M.9 29.8s.2-6.1 7.3-7 6-.4 6-.4 2.6-4.7 6.8-4.9 4.9-.1 5.3-.4c.4-.2.5-.7.2-1.1-.1-.1-.1-.2-.2-.2.7-.3 1.4.1 1.7.7.1.2.1.4.1.6 1.2-.1 4.2-.9 4.2-2.4s-.6-1.1-.6-1.1 2.4.6 2.4 1.9-1.7 1.9-1.7 1.9c1.8.3 3.7.4 5.5.4 1.9-.2 7-2.5 7.3-4.2-.4 3.3-5 7.7-7.4 9.1s-13.5 7.5-14 8.4c-1.1-.5-10.6-4-16-3.8s-5 1-6.9 2.5zm19.9-10.4c-1.3 0-2.5.8-2.9 2-.2.6-.3 1.2-.2 1.8.3 1.2 1.2 2.2 2.5 2.5.6.1 1.2 0 1.8-.2.6-.2 1.1-.6 1.4-1.2.4-.5.6-1.1.6-1.8 0-1.7-1.4-3.1-3.2-3.1z" class="st1"/><path d="M20.9 21.7c0 .3-.1.5-.2.8-.1.2-.4.4-.6.5-.3.1-.5.1-.8.1-.3-.1-.5-.2-.7-.4-.4-.4-.5-1-.3-1.5.1-.2.3-.5.5-.6.6-.4 1.5-.3 1.9.4.1.2.2.4.2.7zm9.5 25.7c-.2-1.8-.2-8.8 8.5-16.2 6.2-5.2 7.8-9.6 8.2-12.2l-.3-1.2c-.7 2.4-1.8 4.6-3.3 6.6-2.2 2.9-9.8 8.5-13.4 13.5-2.6 3.7-3.8 9-4 10.4 1.5-.2 2.9-.5 4.3-.9z" class="st1"/><path d="M45.9 28.4c.9-1.5 1.5-3.1 1.8-4.8 0-.8-.1-1.6-.2-2.5-1 5-5.3 9.4-8.3 13.8-2.1 3.2-3.5 6.7-4.1 10.5 1.1-.6 2.2-1.3 3.2-2 .2-5.1 4.6-10 7.6-15zm.3-12.5c-.1-.2-.1-.3-.2-.5-2.3 8-14.3 13.7-21 18.7-4.2 3.3-7.1 7.8-8.4 13 1.6.5 3.2.8 4.9 1 1.3-8 4.9-12.3 15.2-19.7 7.4-5.5 9.1-10.3 9.5-12.5z" class="st1"/><path d="M25 34.1c6.6-5 18.7-10.7 21-18.7-.2-.5-.4-1-.6-1.4l-.1.1c-.7 3.3-5 7.3-7.2 8.6s-13.5 7.5-14 8.4c-1.1-.5-10.6-4-16-3.8s-5.2.8-7 2.3c-.1.2-.2.3-.3.5 2 8 8 14.3 15.8 16.9 1.2-5.1 4.2-9.6 8.4-12.9zm14.2.9c3-4.4 7.4-8.8 8.3-13.8-.1-.7-.2-1.5-.4-2.2-.4 2.7-2 7-8.2 12.2-8.7 7.3-8.7 14.4-8.5 16.2 1.6-.5 3.2-1.1 4.7-1.9.6-3.8 2-7.3 4.1-10.5zm6.7-6.6c-3 5-7.3 9.9-7.5 15 5.9-4.5 9.4-11.5 9.4-19v-.8c-.4 1.7-1 3.3-1.9 4.8z" class="st2"/><path d="M30.1 37.8c3.5-4.9 11.2-10.6 13.3-13.5 1.5-2 2.6-4.2 3.3-6.6l-.6-1.8c-.4 2.3-2.1 7.1-9.6 12.5-10.3 7.4-13.9 11.7-15.2 19.7.8.1 1.7.1 2.5.1s1.5 0 2.3-.1c.3-1.3 1.4-6.7 4-10.3zM55.5 36.4V14.1h7v3.2c.6-1.2 1.6-2.2 2.8-2.8 2.6-1.2 5.6-1.3 8.2-.3 1 .4 1.8 1 2.5 1.9.7.9 1.2 1.9 1.4 3 .2 1.3.4 2.7.3 4.1v13.2h-7V25c.1-1.3-.2-2.7-.8-3.9-.7-1-1.8-1.6-3.1-1.4-1.3-.1-2.5.5-3.2 1.5-.8 1.2-1.1 2.6-1.1 4.1v11.1h-7zM82 27.3V14.1h7v11.4c-.1 1.3.2 2.7.8 3.9.6 1 1.8 1.6 3 1.5 1.3.1 2.5-.5 3.2-1.5.7-1.2 1.1-2.7 1-4.1V14.1h7v22.2h-7v-3.2c-.6 1.2-1.6 2.1-2.8 2.7-2.6 1.2-5.6 1.3-8.2.3-1-.4-1.8-1-2.5-1.9-.7-.9-1.2-1.9-1.4-3-.1-1.2-.2-2.5-.1-3.9zm25.7 1.6h6.9c-.1 1 .3 1.9 1 2.5.7.5 1.6.8 2.6.8.7 0 1.5-.1 2.1-.5.5-.3.8-1 .8-1.6 0-.4-.1-.8-.3-1-.3-.3-.7-.6-1.1-.7-.6-.3-1.2-.5-1.8-.7l-2.7-.8c-.9-.3-1.8-.6-2.6-.9-.8-.3-1.5-.7-2.2-1.2-.6-.5-1.1-1.1-1.5-1.8-.4-.8-.6-1.7-.6-2.7-.1-2.1.9-4 2.7-5.1 2.2-1.2 4.7-1.8 7.2-1.7 1.4 0 2.9.2 4.2.6 1.1.3 2.1.9 3 1.6.8.7 1.4 1.5 1.8 2.4.4.9.6 1.9.6 3h-7c.1-.8-.2-1.5-.7-2.1-.6-.6-1.4-.8-2.2-.8-.6 0-1.3.1-1.8.5-.5.3-.8.9-.8 1.5 0 .4.1.7.4 1 .3.3.7.5 1.1.7.5.2 1.1.4 1.8.6l2.4.8c.9.3 1.9.6 2.8.9.8.3 1.6.7 2.3 1.2.6.5 1.2 1.1 1.6 1.8.4.8.6 1.7.6 2.7 0 1.2-.2 2.3-.8 3.3-.5.9-1.2 1.7-2.1 2.2-1 .6-2.1 1-3.2 1.3-1.3.3-2.6.4-3.9.4-2.7.2-5.3-.6-7.5-2.1s-3.3-3.7-3.1-6.1zm22.4-3.7c0-1.6.2-3.1.8-4.6.5-1.4 1.2-2.6 2.2-3.7 1-1 2.1-1.9 3.4-2.4 1.4-.6 2.9-.9 4.4-.9.7 0 1.4.1 2.1.3.7.2 1.3.5 1.9.8.6.3 1.1.7 1.6 1.2.4.4.8.9 1.1 1.4v-3.2h7v22.2h-7v-3.1c-.3.5-.7 1-1.1 1.5-.5.4-1 .8-1.6 1.1-.6.3-1.3.6-1.9.8-.7.2-1.4.3-2.1.3-1.5 0-3-.3-4.4-.9-1.3-.6-2.5-1.4-3.4-2.5-1-1.1-1.7-2.3-2.2-3.7-.5-1.4-.8-3-.8-4.6zm7 0c0 .8.1 1.5.4 2.2.2.7.6 1.3 1.1 1.8.5.5 1 .9 1.6 1.2 1.4.6 2.9.6 4.3 0 .6-.3 1.2-.7 1.7-1.2s.8-1.1 1.1-1.8c.3-.7.4-1.5.4-2.2 0-.7-.1-1.5-.4-2.2-.3-.7-.6-1.3-1.1-1.8-.5-.5-1-.9-1.6-1.2-.7-.3-1.4-.5-2.2-.5-1.5 0-2.8.6-3.8 1.7-.5.5-.8 1.1-1.1 1.8-.2.8-.4 1.5-.4 2.2z" class="st2"/><path d="M157.4 19.7v-5.6h3.5V7.9h7v6.3h5v5.6h-5v7.7c0 .6.1 1.3.2 1.9.1.4.3.8.6 1.1.3.3.6.4 1 .5.4.1.8.1 1.2.1h1.3c.4 0 .8-.1 1.2-.1v5.4c-.5.1-1.2.2-2 .2s-1.7.1-2.7.1c-.9 0-1.8-.1-2.6-.2-.9-.1-1.8-.4-2.6-.9-.8-.6-1.5-1.4-1.9-2.3-.6-1.3-.8-2.8-.8-4.3v-9.3h-3.4zm18.7 16.7V14.1h7.1v3.6c.6-1.1 1.5-2.1 2.6-2.8 1.2-.8 2.7-1.2 4.2-1.2.7 0 1.4.1 2.1.4v6.4c-.5-.1-.9-.2-1.2-.3-.4-.1-.8-.1-1.2-.1-1.7-.1-3.4.5-4.7 1.7-1.2 1.1-1.8 3.1-1.8 5.8v8.7h-7.1zm17-29.6c0-1.2.5-2.3 1.3-3.1.9-.9 2-1.3 3.2-1.3 1.2 0 2.4.4 3.2 1.2.4.4.8.9 1 1.4.2.6.4 1.2.4 1.8 0 1.2-.5 2.3-1.3 3.2-.4.4-.9.8-1.4 1-.6.2-1.2.4-1.8.4-.6 0-1.2-.1-1.8-.4-.5-.2-1-.6-1.4-1-.4-.4-.8-.9-1-1.4-.3-.6-.4-1.2-.4-1.8zm1 29.6V14.1h7v22.2h-7zm11.9 10V14.1h7v3.2c.3-.5.7-1 1.1-1.4.5-.5 1-.9 1.6-1.2.6-.3 1.3-.6 2-.8.7-.2 1.4-.3 2.2-.3 1.5 0 3 .3 4.4.9 1.3.6 2.5 1.4 3.4 2.4 1 1.1 1.7 2.3 2.2 3.7.5 1.5.8 3 .8 4.6 0 1.6-.3 3.2-.8 4.6-.5 1.4-1.2 2.6-2.2 3.7-1 1-2.1 1.9-3.4 2.5-1.4.6-2.9.9-4.4.9-.7 0-1.5-.1-2.1-.3-.7-.2-1.4-.5-2-.8-.6-.3-1.1-.7-1.6-1.2-.4-.4-.8-.9-1.1-1.5v13.2l-7.1.1zm7-21.2c0 .8.1 1.5.4 2.2.5 1.3 1.5 2.4 2.8 3 .7.3 1.4.5 2.2.5.7 0 1.5-.2 2.1-.5.6-.3 1.2-.7 1.7-1.2s.8-1.1 1.1-1.8c.5-1.4.5-3 0-4.4-.2-.7-.6-1.3-1.1-1.8-.5-.5-1-.9-1.7-1.2-.7-.3-1.4-.5-2.1-.5-.8 0-1.5.1-2.2.5-.6.3-1.2.7-1.7 1.2s-.8 1.1-1.1 1.8c-.2.8-.4 1.5-.4 2.2z" class="st0"/></svg>